<mxfile host="app.diagrams.net" modified="2023-05-30T11:56:09.897Z" agent="Mozilla/5.0 (Windows NT 10.0; Win64; x64; rv:109.0) Gecko/20100101 Firefox/113.0" version="21.3.3" etag="WFn5eA0xy2w0qE62Mv-o" type="github">
  <diagram name="Страница 1" id="Hly_G94qqrcojCQGTBQA">
    <mxGraphModel>
      <root>
        <mxCell id="0" />
        <mxCell id="1" parent="0" />
      </root>
    </mxGraphModel>
  </diagram>
</mxfile>
